<svg width="158" height="69" viewBox="0 0 158 69" fill="none" xmlns="http://www.w3.org/2000/svg">
<path d="M73.5566 0.821777H81.0158C85.1018 0.821777 86.147 2.10457 86.147 6.52308V11.3217C86.147 14.5524 85.5769 16.0252 83.724 16.6429C85.5769 17.213 86.147 18.7334 86.147 21.9166V28.3781C86.147 32.7966 85.1018 34.0794 81.0158 34.0794H73.5566V0.821777ZM81.0158 7.14072C81.0158 6.04797 80.8733 5.66788 80.0181 5.66788H78.6878V14.1723H80.0181C80.8733 14.1723 81.0158 13.8397 81.0158 12.747V7.14072ZM78.6878 19.0184V29.2333H80.0181C80.8733 29.2333 81.0158 28.8532 81.0158 27.7604V20.4913C81.0158 19.3985 80.8733 19.0184 80.0181 19.0184H78.6878Z" fill="white"/>
<path d="M100.352 29.5658C100.352 31.2287 100.495 32.7966 101.017 34.0794H95.696C95.2684 33.2717 95.2209 31.7038 95.2209 30.0885V21.6315C95.2209 20.4438 94.9358 19.7786 93.8906 19.7786H92.8929V34.0794H87.7617V0.821777H95.2209C99.3069 0.821777 100.352 2.10457 100.352 6.52308V12.0818C100.352 15.3126 99.782 16.8329 97.8815 17.4031C99.782 17.9732 100.352 19.541 100.352 22.7718V29.5658ZM95.2209 7.14072C95.2209 6.04797 95.0784 5.66788 94.2232 5.66788H92.8929V14.9325H94.2232C95.0784 14.9325 95.2209 14.5999 95.2209 13.4597V7.14072Z" fill="white"/>
<path d="M101.967 6.28577C101.967 1.86727 103.012 0.584473 107.098 0.584473H109.474C113.512 0.584473 114.557 1.86727 114.557 6.28577V28.6159C114.557 33.0344 113.512 34.3172 109.474 34.3172H107.098C103.012 34.3172 101.967 33.0344 101.967 28.6159V6.28577ZM109.426 6.90342C109.426 5.81067 109.331 5.43058 108.476 5.43058H108.096C107.241 5.43058 107.098 5.81067 107.098 6.90342V27.9982C107.098 29.091 107.241 29.4711 108.096 29.4711H108.476C109.331 29.4711 109.426 29.091 109.426 27.9982V6.90342Z" fill="white"/>
<path d="M116.363 0.821777H121.494V15.5501C121.78 14.2198 121.875 13.5547 122.112 12.557L125.01 0.821777H129.999L125.865 16.4528L130.094 34.0794H124.725L122.065 22.0116C121.875 21.0614 121.684 19.9686 121.494 18.6859V34.0794H116.363V0.821777Z" fill="white"/>
<path d="M136.223 14.3624H139.786V19.2085H136.223V29.2333H140.736V34.0794H131.092V0.821777H140.736V5.66788H136.223V14.3624Z" fill="white"/>
<path d="M147.335 19.9686C146.955 17.5456 146.717 15.1701 146.432 12.7945C146.48 15.1701 146.527 17.6406 146.527 19.9686V34.0794H142.156V0.821777H148.38L150.043 11.7493C150.423 14.1248 150.613 16.5004 150.898 18.9234C150.851 16.4528 150.756 14.0773 150.756 11.7493V0.821777H155.174V34.0794H149.568L147.335 19.9686Z" fill="white"/>
<path d="M80.3968 58.8802C80.3968 56.5522 79.7792 55.602 77.4037 53.1314C74.458 49.9007 73.3652 48.2853 73.3652 43.9618V40.9686C73.3652 36.5501 74.4104 35.2673 78.4489 35.2673H80.4443C84.4828 35.2673 85.528 36.5501 85.528 40.9686V46.9075H80.7294V41.5863C80.7294 40.4935 80.5869 40.1134 79.7317 40.1134H79.4466C78.5914 40.1134 78.4489 40.4935 78.4489 41.4913V44.1519C78.4489 46.5274 79.0665 47.4301 81.4421 49.9482C84.3878 53.1314 85.528 54.7468 85.528 59.0703V63.2987C85.528 67.7172 84.4828 69 80.4443 69H78.4489C74.4104 69 73.3652 67.7172 73.3652 63.2987V56.0296H78.1638V62.6811C78.1638 63.7738 78.2588 64.1539 79.1615 64.1539H79.4466C80.3018 64.1539 80.3968 63.7738 80.3968 62.6811V58.8802Z" fill="white"/>
<path d="M92.178 62.6808C92.178 63.7736 92.3206 64.1537 93.1758 64.1537H93.5559C94.4111 64.1537 94.5061 63.7736 94.5061 62.6808V54.414H99.3522V63.2985C99.3522 67.717 98.3069 68.9998 94.2685 68.9998H92.178C88.0921 68.9998 87.0469 67.717 87.0469 63.2985V40.9684C87.0469 36.5499 88.0921 35.2671 92.178 35.2671H94.2685C98.3069 35.2671 99.3522 36.5499 99.3522 40.9684V48.4276H94.5061V41.586C94.5061 40.4933 94.4111 40.1132 93.5559 40.1132H93.1758C92.3206 40.1132 92.178 40.4933 92.178 41.586V62.6808Z" fill="white"/>
<path d="M101.062 35.5049H106.194V68.7625H101.062V35.5049Z" fill="white"/>
<path d="M113.274 49.0455H116.837V53.8916H113.274V63.9164H117.787V68.7625H108.143V35.5049H117.787V40.351H113.274V49.0455Z" fill="white"/>
<path d="M124.388 54.6518C124.008 52.2287 123.77 49.8532 123.485 47.4776C123.532 49.8532 123.58 52.3237 123.58 54.6518V68.7625H119.209V35.5049H125.433L127.096 46.4324C127.476 48.8079 127.666 51.1835 127.951 53.6065C127.903 51.1359 127.808 48.7604 127.808 46.4324V35.5049H132.227V68.7625H126.621L124.388 54.6518Z" fill="white"/>
<path d="M139.069 62.6808C139.069 63.7736 139.211 64.1537 140.066 64.1537H140.446C141.302 64.1537 141.397 63.7736 141.397 62.6808V54.414H146.243V63.2985C146.243 67.717 145.198 68.9998 141.159 68.9998H139.069C134.983 68.9998 133.938 67.717 133.938 63.2985V40.9684C133.938 36.5499 134.983 35.2671 139.069 35.2671H141.159C145.198 35.2671 146.243 36.5499 146.243 40.9684V48.4276H141.397V41.586C141.397 40.4933 141.302 40.1132 140.446 40.1132H140.066C139.211 40.1132 139.069 40.4933 139.069 41.586V62.6808Z" fill="white"/>
<path d="M153.084 49.0455H156.648V53.8916H153.084V63.9164H157.598V68.7625H147.953V35.5049H157.598V40.351H153.084V49.0455Z" fill="white"/>
<g clip-path="url(#clip0_799_1830)">
<rect width="67.3154" height="67.3154" fill="#5A789E"/>
<path d="M85.0816 43.3526C83.6404 40.2155 81.5148 37.7485 78.3277 36.2749C76.4279 35.3979 74.5129 35.3291 72.5474 35.8981C72.2918 35.9666 72.0521 36.0943 71.7874 36.2075C71.5027 35.8923 71.2404 35.5817 70.961 35.2863C69.9422 34.2367 68.9333 33.1845 67.6339 32.4641C66.1624 31.6522 64.6551 30.9028 63.0244 30.4404C62.4188 30.2642 61.8085 30.1103 61.21 29.9215C60.4849 29.6926 60.1133 29.2102 60.0828 28.4672C60.0673 28.0164 60.0519 27.5656 60.1008 27.1187C60.2795 25.5049 60.4707 23.8984 60.6914 22.2839C60.9817 20.143 61.3042 18.004 61.6142 15.8577C61.7441 14.9659 61.864 14.0768 61.9912 13.1751C62.1442 12.0549 61.3835 11.497 60.5884 11.3609C60.2788 11.3063 59.96 11.2965 59.6511 11.284C57.9414 11.2343 56.2418 11.3405 54.5471 11.583C53.4412 11.7418 52.384 12.0039 51.3521 12.4391C48.7294 13.5439 46.8016 15.3936 45.428 17.8566C45.3777 17.9441 45.3221 18.0119 45.2548 18.1146C45.2015 18.0337 45.1712 17.9994 45.1606 17.96C44.4797 15.4973 43.7863 13.0275 43.125 10.5596C42.924 9.80933 43.1415 9.12682 43.7496 8.60416C43.9538 8.42248 44.1606 8.25066 44.3675 8.07886C44.7445 7.75565 44.8845 7.29493 44.7261 6.86125C44.5678 6.42757 44.1651 6.14398 43.674 6.1592C43.4641 6.16252 43.2577 6.21784 43.0611 6.27052C36.6173 8.01829 30.1833 9.76344 23.7395 11.5112C23.6117 11.5455 23.4741 11.5823 23.3489 11.6264C22.9197 11.7943 22.6588 12.1182 22.6349 12.5795C22.611 13.0409 22.8098 13.3897 23.2287 13.616C23.5728 13.7989 23.9127 13.8877 24.3066 13.8245C25.0133 13.7092 25.5785 13.9703 25.921 14.6192C26.1153 14.9904 26.2827 15.3793 26.3912 15.784C26.9531 17.8024 27.4855 19.8287 28.0251 21.8425C28.0594 21.9709 28.0715 22.0946 28.112 22.2848C27.5146 22.0216 26.9842 21.7723 26.4492 21.5453C24.5634 20.7598 22.6106 20.2356 20.5787 20.1241C19.2093 20.0467 17.8897 20.2733 16.6615 20.9198C15.9325 21.3056 15.3448 21.8651 14.7999 22.466C13.9377 23.4165 13.4346 24.567 13.3214 25.8353C13.1221 28.2375 13.7755 30.4007 15.381 32.2241C16.0641 33.0039 16.7982 33.7382 17.4983 34.5029C18.4752 35.5531 19.6698 36.3545 20.7506 37.2816C20.821 37.3474 20.8913 37.4132 21.0194 37.5376C20.7918 37.5139 20.6633 37.5061 20.5321 37.4883C19.0004 37.3168 17.4586 37.2644 15.9155 37.2864C13.8787 37.3137 11.8487 37.445 9.82887 37.7323C8.47904 37.9247 7.11862 38.0776 5.79259 38.3589C3.15036 38.9187 0.55045 39.6365 -1.91606 40.7735C-3.69665 41.5998 -5.31998 42.659 -6.67229 44.1006C-7.35336 44.8226 -8.00683 45.5691 -8.35029 46.5287C-8.75768 47.643 -8.96696 48.7888 -8.97547 49.9761C-8.98199 50.5809 -8.94655 51.1851 -8.72167 51.7491C-8.28175 52.8797 -7.58393 53.793 -6.51364 54.4056C-5.60289 54.9339 -4.64598 55.2806 -3.59262 55.3581C-1.07793 55.5413 1.40695 55.2987 3.87448 54.9126C5.69694 54.6359 7.49751 54.238 9.31204 53.9317C10.7326 53.6886 12.146 53.458 13.5778 53.2965C15.7368 53.0566 17.9026 52.9207 20.0759 52.9308C20.8982 52.9327 21.7213 52.9766 22.5444 53.0206C22.8783 53.0475 23.2299 53.1014 23.563 53.3613C23.3051 53.5786 23.099 53.7925 22.8547 53.9426C22.1631 54.3501 21.459 54.7504 20.7372 55.1236C18.3954 56.333 15.9369 57.2246 13.4243 57.993C12.0612 58.4112 10.7034 58.8491 9.39169 59.3804C7.16796 60.2831 5.00811 61.3062 2.92008 62.4793C0.898209 63.6241 -0.699125 65.1737 -1.84093 67.2042C-2.13555 67.7169 -2.33829 68.2579 -2.39926 68.8562C-2.54545 70.3555 -1.87527 71.5196 -0.845495 72.4921C-0.084503 73.2087 0.837973 73.7022 1.83874 74.0159C2.74764 74.3014 3.66941 74.4776 4.61653 74.5518C5.98408 74.6615 7.33732 74.5211 8.68715 74.3287C10.2979 74.0876 11.8663 73.6885 13.4056 73.1808C14.9449 72.6731 16.4665 72.1384 18.0005 71.611C18.9356 71.2864 19.8654 70.942 20.8004 70.6174C21.1294 70.5081 21.469 70.4383 21.8032 70.3487C21.7484 70.4586 21.6829 70.5291 21.6024 70.5824C19.5945 72.0938 17.574 73.598 15.5661 75.1094C14.038 76.2489 12.5198 77.3857 11.2843 78.8701C10.559 79.7415 9.93083 80.6611 9.54499 81.7378C8.60461 84.4021 9.91454 87.7966 13.0155 88.8701C15.0454 89.5641 17.0996 89.4051 19.1108 88.771C19.9162 88.5129 20.705 88.1534 21.451 87.7525C23.4933 86.6445 25.3882 85.3009 27.2146 83.8593C29.3697 82.1498 31.5372 80.4475 33.6416 78.6669C33.6828 78.6241 33.7365 78.5885 33.7777 78.5458C33.887 78.4424 34.0004 78.4332 34.1475 78.5102C35.4828 79.1681 36.9229 79.4699 38.3585 79.7941C39.7468 80.0993 41.1439 80.201 42.5478 80.1317C42.9327 80.1132 43.313 80.1171 43.7104 80.1058C43.7527 80.2638 43.7845 80.3822 43.8162 80.5007C44.8826 84.3625 45.9391 88.2268 47.0028 92.0787C47.0478 92.2465 47.0875 92.3946 47.3544 92.4077C47.4471 92.203 47.5719 92.0003 47.6494 91.7785C47.9233 91.0703 48.0633 90.3345 48.0597 89.5737C48.0466 88.4239 47.9129 87.2959 47.6239 86.1778C47.3038 84.9833 46.9864 83.7987 46.6664 82.6043C42.2487 66.2353 37.8408 49.8636 33.4133 33.4972C33.3155 33.1319 33.3147 32.8147 33.4963 32.4698C34.4464 30.6282 34.3124 28.7914 33.4821 26.9507C33.0062 25.8826 32.26 25.0246 31.3436 24.3179C30.9731 24.0363 30.7868 23.6947 30.6704 23.2604C29.847 20.1482 29.004 17.0413 28.1681 13.9219C28.0729 13.5665 27.941 13.2315 27.6212 13.021C27.5437 12.9677 27.4662 12.9144 27.3335 12.8124L40.733 9.22199C40.7466 9.42996 40.7523 9.60832 40.7776 9.7814C40.8123 10.0683 40.8247 10.3507 40.8988 10.6271C41.8642 14.2302 42.8618 17.8353 43.847 21.4331C43.921 21.7095 43.9229 21.9524 43.871 22.2308C43.4544 24.2151 43.4923 26.2047 43.8364 28.1968C44.0377 29.3807 44.433 30.5021 44.865 31.6031C45.4546 33.0957 46.1811 34.5092 47.1813 35.7648C47.4819 36.1392 47.7824 36.5136 48.0829 36.8881C47.7815 37.2968 47.4551 37.6911 47.1912 38.1216C46.6757 38.9897 46.5368 39.9263 46.8996 40.8871C47.0421 41.2615 47.2265 41.6353 47.4057 41.9894C47.513 42.1934 47.6499 42.3895 47.8177 42.6619C47.8533 42.4408 47.8635 42.3217 47.8862 42.2098C48.0232 41.5806 48.1601 40.9514 48.2971 40.3222C48.3244 40.1879 48.3739 40.0582 48.5516 40.0529C48.7392 40.045 48.752 40.2109 48.7936 40.3267C48.9957 41.0026 49.2077 41.6758 49.4027 42.3642C49.8985 44.1358 50.3523 45.9081 50.8579 47.677C52.9521 55.1781 55.0535 62.6667 57.1477 70.1677C58.3474 74.4487 59.5446 78.7198 60.7542 82.9981C61.2605 84.8092 61.8062 86.6098 62.3027 88.4235C62.7702 90.1286 63.0947 91.8509 63.3209 93.5996C63.4696 94.7447 63.4899 95.8819 63.211 97.0041C62.8705 98.4073 62.0544 99.4512 60.8304 100.192C60.1611 100.604 59.3988 100.787 58.6577 101.049C57.6833 101.384 56.6934 101.544 55.6563 101.409C54.6639 101.283 53.9206 100.869 53.1683 100.224C51.4883 98.7909 50.2159 96.9523 49.235 94.9827C49.1632 94.8326 49.0888 94.6727 49.0071 94.5253C48.8174 94.1318 48.5586 94.8571 48.5446 95.0407C48.481 95.6291 48.5966 96.2964 48.7836 96.9552C49.2013 98.0812 49.7217 99.1585 50.4452 100.128C50.8097 100.623 51.1498 101.146 51.5993 101.565C52.0889 102.016 52.6635 102.391 53.2427 102.743C53.8495 103.12 54.5391 103.295 55.2469 103.381C56.8901 103.575 58.5023 103.418 60.081 102.9C61.3306 102.491 62.4756 101.888 63.4218 100.936C64.9987 99.35 65.6081 97.3775 65.6039 95.1991C65.5989 93.2537 65.2242 91.3438 64.8003 89.4471C64.2498 86.9601 63.4339 84.5443 62.7457 82.0942C62.3709 80.7345 61.9737 79.3703 61.5989 78.0106C61.5645 77.8823 61.5498 77.7487 61.5101 77.6006C65.4255 76.287 69.085 74.6081 71.8532 71.4118C72.077 71.4999 72.2883 71.5808 72.497 71.6519C74.2297 72.2985 75.9905 72.5779 77.8372 72.2736C79.6248 71.985 81.1676 71.2542 82.4862 70.0016C83.6615 68.8825 84.427 67.4924 85.0526 66.0128C86.3163 63.0609 86.8038 59.9255 87.0486 56.7493C87.2176 54.5879 87.0901 52.4214 86.8591 50.2614C86.6065 47.8639 86.0787 45.5401 85.0692 43.3454L85.0816 43.3526ZM43.1206 77.9045C40.2134 78.1439 37.5206 77.5323 34.8643 76.4665C35.1458 75.6293 35.2548 74.8172 35.1906 73.9879C35.0809 72.3986 34.7522 70.8573 33.9346 69.4576C33.662 68.991 33.3267 68.6047 32.8095 68.4047C32.2575 68.1929 31.6779 68.2318 31.2438 68.5386C31.5776 69.1157 31.9408 69.6849 32.2576 70.2772C32.7765 71.2703 33.131 72.3179 33.2549 73.4486C33.3345 74.1785 33.2535 74.8985 33.0931 75.5974C32.9535 76.2168 32.5598 76.7137 32.0754 77.108C30.5201 78.3818 28.947 79.6285 27.4015 80.8997C25.6321 82.3577 23.797 83.7276 21.8632 84.9652C20.7205 85.6946 19.5593 86.3549 18.2499 86.7375C16.9404 87.1201 15.5989 87.2257 14.2507 86.9521C12.5331 86.5977 11.4565 85.2144 11.4303 83.4651C11.4198 82.6003 11.7769 81.8487 12.2587 81.1694C13.0563 80.0564 13.9892 79.0552 15.0832 78.2225C17.0105 76.7644 18.9459 75.3359 20.8634 73.8804C22.0451 72.9819 23.1966 72.0491 24.3783 71.1506C25.1455 70.5535 25.9306 69.9834 26.7129 69.4035C26.8177 69.3225 26.9349 69.2488 27.037 69.158C27.5986 68.6583 27.5946 67.7389 26.8002 67.3698C26.3919 67.183 26.0101 67.0949 25.551 67.1121C24.2205 67.1406 22.9879 67.5344 21.7586 67.9801C20.4828 68.4489 19.184 68.871 17.8957 69.3326C17.135 69.5999 16.3821 69.8968 15.6089 70.1569C14.0302 70.6752 12.4471 71.2158 10.8473 71.655C9.04102 72.1496 7.18188 72.4467 5.29707 72.4121C4.22744 72.3919 3.17977 72.2177 2.17485 71.8098C1.37145 71.4855 0.638005 71.0683 0.137907 70.303C-0.311537 69.6088 -0.330713 68.9473 0.0887107 68.2319C1.0085 66.6311 2.26285 65.3745 3.86159 64.4595C5.46033 63.5444 7.12295 62.7498 8.80863 62.0018C10.8422 61.0972 12.9464 60.417 15.0684 59.7638C17.1805 59.1132 19.2333 58.3198 21.2011 57.327C22.092 56.8767 22.9776 56.4066 23.8454 55.9096C24.3759 55.6087 24.8629 55.2243 25.2317 54.7129C25.4173 54.4621 25.5754 54.187 25.7774 53.8789C27.1959 54.7685 28.3545 55.9075 28.7997 57.6081C28.9663 58.23 29.0346 58.8782 28.9449 59.5265C28.881 59.9563 28.8518 60.3979 28.7557 60.8257C28.7038 61.1041 28.8078 61.2561 29.01 61.3818C29.4868 61.6666 30.1193 61.5501 30.4416 61.0617C30.6291 60.7786 30.7491 60.4397 30.8421 60.1185C31.0691 59.2747 31.0193 58.4205 30.9053 57.5623C30.7165 56.1105 30.1091 54.866 29.0975 53.804C28.5387 53.2131 27.9316 52.6775 27.2447 52.2373C26.4526 51.7195 25.5517 51.4636 24.6488 51.24C22.4711 50.702 20.2558 50.6925 18.042 50.7672C15.7961 50.84 13.5544 51.0069 11.3307 51.3594C9.44928 51.6519 7.57915 52.026 5.71092 52.3679C3.79089 52.7131 1.87541 53.0359 -0.0786091 53.1363C-1.18152 53.1885 -2.2837 53.2828 -3.39679 53.179C-4.14126 53.1139 -4.83691 52.8771 -5.46865 52.4856C-6.30529 51.9586 -6.76796 51.215 -6.81279 50.2219C-6.84929 49.1419 -6.66802 48.0882 -6.23872 47.095C-6.10104 46.783 -5.89115 46.5046 -5.66879 46.2334C-4.49608 44.8294 -3.09317 43.734 -1.43509 42.9618C-0.0292229 42.31 1.38987 41.7075 2.88946 41.3269C4.12362 41.0173 5.35249 40.6881 6.60252 40.4378C7.73193 40.2092 8.87531 40.0721 10.0232 39.9127C12.0556 39.6326 14.1026 39.4862 16.1545 39.4759C18.4458 39.4545 20.7374 39.5917 22.984 40.1112C24.5239 40.471 25.998 41.0176 27.2966 41.971C28.4126 42.7935 29.2163 43.8267 29.466 45.2304C29.5072 45.4627 29.5249 45.7648 29.7952 45.8299C30.1003 45.9069 30.3359 45.685 30.5019 45.4395C30.9308 44.8379 31.1411 44.1679 30.9874 43.4367C30.8185 42.6885 30.5369 41.9916 30.0515 41.3598C29.2373 40.2872 28.1602 39.5707 27.0033 38.9496C25.7742 38.295 24.6681 37.4698 23.5547 36.6572C23.5146 36.6256 23.4817 36.5816 23.4481 36.4953C24.8448 36.7136 26.2157 36.8753 27.6283 36.6026C29.0285 36.3226 30.2521 35.6985 31.4746 34.8737C31.532 35.0487 31.5914 35.1915 31.6311 35.3396C32.0357 36.85 32.4503 38.3577 32.8576 39.8779C36.2161 52.3727 39.5818 64.8549 42.9403 77.3497C42.9853 77.5175 43.0329 77.6952 43.0911 77.9124L43.1206 77.9045ZM31.9688 29.7579C32.0046 30.7958 31.6184 31.7139 30.923 32.461C30.1182 33.3115 29.1287 33.9046 28.0397 34.3234C27.3995 34.569 26.7261 34.6119 26.044 34.583C23.6318 34.4676 21.3913 33.7348 19.2988 32.5709C18.2213 31.9709 17.2792 31.2076 16.5746 30.1903C15.743 28.9742 15.4225 27.6211 15.5079 26.1699C15.5598 25.3413 15.8624 24.5831 16.4243 23.967C16.7272 23.6425 17.0525 23.3226 17.4257 23.0638C17.7721 22.8229 18.1967 22.6774 18.5786 22.4904C19.5624 22.2691 20.5232 22.2762 21.4987 22.4169C24.3661 22.8547 26.9668 23.9882 29.383 25.5733C29.8676 25.8878 30.3046 26.2997 30.7193 26.707C31.5469 27.5539 31.9237 28.6062 31.9715 29.7678L31.9688 29.7579ZM71.1522 68.7958C69.5812 70.9942 67.5559 72.6373 65.1242 73.7861C63.9365 74.3477 62.7 74.806 61.4768 75.3136C61.315 75.3781 61.1327 75.4058 60.9165 75.4638C60.8741 75.3058 60.8121 75.1531 60.7698 74.9952C59.7412 71.3138 58.7225 67.6297 57.6939 63.9483C56.2092 58.6433 54.7147 53.341 53.2497 48.0307C52.4365 45.0745 51.6698 42.0953 50.8861 39.1312C50.8676 39.0621 50.8465 38.9831 50.8272 38.8719C51.8106 39.0422 52.6496 38.8703 53.344 37.9224C53.2075 37.8849 53.0914 37.8843 53.0041 37.8336C52.2778 37.404 51.5542 36.9842 50.8521 36.5269C50.5323 36.3164 50.2628 36.0183 49.9959 35.7301C48.5412 34.1942 47.4919 32.4017 46.7406 30.4234C45.9431 28.3518 45.6111 26.2083 45.8115 24.0068C46.0217 21.8027 46.7385 19.759 47.9824 17.9127C49.2576 16.0263 51.0182 14.7716 53.1822 14.1177C54.0197 13.8616 54.9067 13.7509 55.784 13.6428C56.9837 13.48 58.1928 13.4311 59.4088 13.4862C59.515 13.4895 59.6141 13.5052 59.7748 13.5151C59.6805 14.1857 59.5783 14.8268 59.4886 15.4751C58.9833 19.1337 58.4681 22.795 57.985 26.4583C57.8942 27.1809 57.9149 27.9266 57.9231 28.665C57.9269 30.4097 59.3317 31.6415 60.4762 31.9802C61.1514 32.1802 61.8339 32.3677 62.5091 32.5676C63.9738 33.0004 65.3413 33.6603 66.6539 34.4301C67.914 35.1611 68.8961 36.231 69.8514 37.3188C70.925 38.5335 71.7032 39.9438 72.4815 41.354C73.5686 43.3269 74.4938 45.3643 75.0096 47.5644C75.8008 50.9497 75.7447 54.3187 74.5164 57.5997C73.6775 59.8559 72.3716 61.8246 70.5829 63.4466C70.1673 63.8224 69.7464 64.1786 69.3407 64.5518C69.1875 64.6881 69.0423 64.8539 68.9444 65.0389C68.7295 65.4562 68.8323 65.9577 69.1714 66.2794C69.523 66.6084 70.0478 66.6794 70.4629 66.42C70.6267 66.3233 70.7798 66.187 70.9258 66.0633C71.5482 65.5156 72.1654 64.9482 72.8559 64.3399C72.8256 64.5808 72.8214 64.7618 72.7923 64.9283C72.5633 66.3545 71.9982 67.6275 71.1621 68.7932L71.1522 68.7958ZM84.7575 50.9515C84.933 52.9041 85.0442 54.8529 84.8741 56.8135C84.6768 59.1834 84.3259 61.5311 83.5761 63.8057C83.227 64.8621 82.7833 65.8803 82.2202 66.8459C81.5349 68.024 80.6084 68.9706 79.3644 69.5579C78.2992 70.0655 77.1717 70.2618 76.0003 70.2159C75.1674 70.1746 74.3239 70.0938 73.5121 69.8563C73.4104 69.8307 73.3159 69.7925 73.1643 69.7379C73.2604 69.5852 73.3492 69.445 73.4309 69.3173C74.0844 68.2958 74.5338 67.1808 74.7869 66.0021C75.0291 64.9003 74.9926 63.8203 74.623 62.7555C74.5134 62.4252 74.5713 62.2086 74.749 61.9282C76.0822 59.8253 77.0622 57.5841 77.4403 55.1023C77.9444 51.7931 77.7136 48.5327 76.6395 45.3502C75.9173 43.2054 74.9108 41.1792 73.7772 39.2293C73.5633 38.8634 73.352 38.5074 73.115 38.0948C73.5472 37.8203 74.0088 37.813 74.4474 37.7589C75.5318 37.6377 76.5337 37.8771 77.5322 38.3396C80.1692 39.5692 81.8632 41.644 83.0696 44.2197C84.0758 46.3624 84.5386 48.6402 84.753 50.9739L84.7575 50.9515Z" fill="#002C4D"/>
<path d="M42.4958 61.4608C43.0577 63.4792 43.5776 65.4982 44.1199 67.5219C45.2652 71.7963 46.4203 76.0681 47.5755 80.3398C47.6099 80.4681 47.6541 80.5938 47.7142 80.7788C49.4891 79.4991 51.2301 78.2496 53.0025 76.96C52.5696 76.6422 52.1991 76.3606 51.8188 76.0816C50.8729 75.3829 49.9297 74.6939 48.9936 73.9925C48.7033 73.7741 48.7006 73.7642 48.8901 73.4489C49.7584 72.0101 50.6268 70.5713 51.4951 69.1324C51.8068 68.6046 51.8158 68.5598 51.4129 68.1176C50.3347 66.9253 49.2468 65.7355 48.1686 64.5432C48.0779 64.4405 47.9845 64.328 47.8911 64.2155C47.918 64.1977 47.9324 64.1727 47.9592 64.1549C49.7357 65.594 51.5265 67.008 53.2885 68.472C52.517 70.0754 51.7617 71.6215 50.9992 73.1801C52.2653 73.9729 53.4788 74.7269 54.7102 75.5079C54.7938 75.348 54.8486 75.2381 54.8936 75.1308C55.2212 74.387 55.5264 73.6387 55.8638 72.8923C55.9682 72.6527 55.9769 72.4493 55.9108 72.2026C54.6218 67.6281 53.3401 63.0411 52.0511 58.4666C52.0247 58.3679 51.9884 58.2718 51.9238 58.1093C51.7562 58.2706 51.6398 58.3864 51.5233 58.5023C50.9239 59.0967 50.2198 59.4969 49.3907 59.6662C48.6106 59.8223 47.8264 59.8843 47.0249 59.8028C46.0279 59.6997 45.027 59.661 44.0553 60.006C43.5645 60.1799 43.1315 60.4123 42.7197 60.7236C42.4664 60.9185 42.3835 61.1205 42.4833 61.4535L42.4958 61.4608Z" fill="#66FF44"/>
<path d="M36.8472 34.5145C36.3387 34.6613 36.0191 35.1596 36.0905 35.7012C36.1025 35.825 36.1343 35.9434 36.1732 36.0494C38.0781 43.0404 39.9803 50.0216 41.895 57.01C41.9452 57.1975 42.0276 57.3871 42.1315 57.5391C42.423 57.9583 42.944 58.0938 43.4125 57.9153C43.8515 57.7448 44.1272 57.2794 44.0717 56.797C44.0483 56.5917 43.9829 56.387 43.9274 56.1797C43.0148 52.774 42.1049 49.3782 41.1923 45.9725L41.094 45.9989C40.1577 42.5043 39.224 39.0197 38.2876 35.5251C38.2532 35.3968 38.2162 35.2586 38.1621 35.1355C37.9407 34.6236 37.3853 34.3597 36.8571 34.5119L36.8472 34.5145Z" fill="#002C4D"/>
<path d="M32.0023 20.7976C32.0023 20.7976 31.9826 20.8029 31.9728 20.8055C32.1409 21.5117 32.3064 22.208 32.4647 22.9167C32.6072 23.5663 33.206 23.9137 33.8235 23.78C34.4436 23.6561 34.8021 22.9887 34.6302 22.3471C34.2716 20.9302 33.9157 19.5232 33.5571 18.1063C33.5121 17.9384 33.4422 17.7561 33.3605 17.6087C33.1262 17.206 32.6438 17.0179 32.1987 17.1265C31.7268 17.253 31.388 17.64 31.3819 18.1283C31.3856 18.3389 31.4117 18.5541 31.4646 18.7516C31.6471 19.4327 31.8296 20.1139 32.0121 20.795L32.0023 20.7976Z" fill="#002C4D"/>
<path d="M31.9307 16.2049C32.5304 16.0443 32.8295 15.5091 32.6602 14.8774C32.4989 14.2752 31.9643 13.9317 31.4039 14.0819C30.8338 14.2347 30.4476 14.8777 30.5885 15.443C30.7268 15.9985 31.348 16.3505 31.928 16.1951L31.9307 16.2049Z" fill="#002C4D"/>
<path d="M32.8993 39.8768C32.4946 38.3665 32.0899 36.8561 31.6727 35.3386C31.633 35.1905 31.5737 35.0477 31.5163 34.8726C30.2937 35.6975 29.08 36.3189 27.67 36.6015C26.2574 36.8742 24.8864 36.7126 23.4898 36.4943C23.5109 36.5733 23.5563 36.6246 23.5964 36.6562C24.7097 37.4688 25.8257 38.2913 27.045 38.9485C28.2019 39.5696 29.2789 40.2862 30.0932 41.3588C30.5687 41.9931 30.8601 42.6874 31.029 43.4357C31.1926 44.1642 30.9725 44.8369 30.5436 45.4385C30.3749 45.6741 30.1393 45.8959 29.8369 45.8289C29.5665 45.7637 29.5488 45.4617 29.5076 45.2294C29.258 43.8256 28.4543 42.7925 27.3383 41.97C26.0397 41.0166 24.5754 40.4673 23.0256 40.1102C20.7791 39.5906 18.4875 39.4534 16.1962 39.4749C14.1469 39.495 12.0972 39.6316 10.0649 39.9116C8.9268 40.0684 7.77623 40.218 6.64418 40.4367C5.39415 40.687 4.16528 41.0163 2.93113 41.3258C1.43153 41.7065 0.0124384 42.3089 -1.39343 42.9607C-3.05151 43.733 -4.45442 44.8283 -5.62713 46.2323C-5.8423 46.491 -6.05938 46.782 -6.19706 47.0939C-6.62636 48.0871 -6.80763 49.1408 -6.77113 50.2208C-6.73613 51.2166 -6.27346 51.9602 -5.42699 52.4846C-4.79261 52.8859 -4.0996 53.1129 -3.35513 53.1779C-2.24203 53.2817 -1.13986 53.1874 -0.0369477 53.1352C1.91707 53.0349 3.83255 52.7121 5.75258 52.3669C7.62346 52.0349 9.49359 51.6607 11.3724 51.3583C13.596 51.0058 15.828 50.8416 18.0837 50.7662C20.2975 50.6914 22.5226 50.6983 24.6905 51.2389C25.5933 51.4625 26.4943 51.7184 27.2863 52.2362C27.9634 52.679 28.5706 53.2147 29.1391 53.8029C30.1409 54.8676 30.7483 56.1121 30.947 57.5612C31.061 58.4194 31.1108 59.2737 30.8838 60.1174C30.7934 60.4485 30.661 60.7802 30.4832 61.0606C30.1735 61.5562 29.5311 61.6755 29.0517 61.3807C28.8396 61.2577 28.733 61.0958 28.7973 60.8246C28.8836 60.3995 28.9253 59.9651 28.9866 59.5254C29.0763 58.8772 29.008 58.2289 28.8413 57.607C28.3864 55.9091 27.2447 54.7549 25.8191 53.8779C25.6171 54.1859 25.459 54.461 25.2733 54.7118C24.902 55.2134 24.4149 55.5978 23.887 55.9085C23.0192 56.4056 22.1336 56.8756 21.2428 57.3259C19.275 58.3187 17.2222 59.1121 15.11 59.7627C12.988 60.416 10.8838 61.0962 8.85029 62.0008C7.16461 62.7487 5.51182 63.5407 3.90325 64.4584C2.30451 65.3735 1.05016 66.6301 0.130372 68.2308C-0.279222 68.9437 -0.269876 69.6077 0.179568 70.302C0.677021 71.0574 1.4131 71.4844 2.21651 71.8087C3.20894 72.2094 4.2691 72.3909 5.33873 72.4111C7.22354 72.4456 9.0755 72.161 10.8889 71.6539C12.4887 71.2147 14.0693 70.6642 15.6505 70.1559C16.4166 69.9083 17.1668 69.6015 17.9374 69.3315C19.2283 68.8798 20.5147 68.4505 21.8003 67.9791C23.0269 67.5234 24.2622 67.1395 25.5927 67.111C26.0445 67.1063 26.4336 67.1819 26.8419 67.3688C27.6362 67.7379 27.6402 68.6573 27.0787 69.1569C26.9766 69.2477 26.8593 69.3215 26.7546 69.4024C25.9722 69.9824 25.1898 70.5623 24.42 71.1495C23.2507 72.0553 22.0868 72.9808 20.9051 73.8794C18.9875 75.3348 17.045 76.7758 15.1248 78.2214C14.0308 79.0541 13.0979 80.0553 12.3003 81.1684C11.8185 81.8476 11.4517 82.6019 11.4719 83.4641C11.4981 85.2134 12.5747 86.5966 14.2924 86.9511C15.6406 87.2246 16.9723 87.1217 18.2915 86.7365C19.6036 86.3638 20.772 85.6909 21.9049 84.9642C23.8387 83.7266 25.6738 82.3567 27.4431 80.8986C28.9886 79.6275 30.5591 78.3708 32.117 77.107C32.6014 76.7127 32.9853 76.2183 33.1347 75.5964C33.2952 74.8974 33.3762 74.1774 33.2965 73.4475C33.1753 72.3268 32.8182 71.2692 32.2992 70.2762C31.9923 69.6813 31.6291 69.112 31.2855 68.5375C31.7196 68.2308 32.2966 68.182 32.8512 68.4037C33.3782 68.601 33.7037 68.9899 33.9762 69.4565C34.7938 70.8562 35.1199 72.3876 35.2323 73.9869C35.2866 74.8188 35.1776 75.6309 34.906 76.4655C37.5623 77.5312 40.2577 78.1527 43.1622 77.9034C43.104 77.6863 43.0591 77.5184 43.0115 77.3407C39.653 64.846 36.2971 52.3611 32.9288 39.8689L32.8993 39.8768Z" fill="white"/>
<path d="M72.8441 64.3321C72.1563 64.9502 71.5365 65.5078 70.914 66.0554C70.7681 66.1792 70.6149 66.3154 70.4512 66.4122C70.0333 66.6617 69.5112 66.6006 69.1596 66.2716C68.8205 65.9498 68.7178 65.4483 68.9326 65.031C69.0305 64.8461 69.1784 64.6901 69.3289 64.544C69.7347 64.1707 70.1654 63.812 70.5711 63.4387C72.3696 61.8142 73.663 59.8382 74.5047 57.5919C75.7329 54.3109 75.789 50.9419 74.9978 47.5566C74.4821 45.3565 73.5568 43.3191 72.4697 41.3462C71.6914 39.9359 70.9132 38.5257 69.8396 37.3109C68.8843 36.2232 67.9022 35.1532 66.6421 34.4223C65.3321 33.6623 63.962 32.9926 62.4973 32.5598C61.8221 32.3598 61.1397 32.1724 60.4644 31.9724C59.32 31.6337 57.9152 30.4019 57.9113 28.6572C57.9031 27.9187 57.8726 27.1757 57.9733 26.4504C58.4563 22.7872 58.9715 19.1259 59.4768 15.4672C59.5666 14.819 59.6661 14.168 59.763 13.5073C59.6023 13.4974 59.5033 13.4816 59.397 13.4784C58.1811 13.4233 56.9746 13.4821 55.7722 13.6349C54.8976 13.7529 54.0106 13.8636 53.1704 14.1099C51.0065 14.7638 49.2557 16.0159 47.9706 17.9049C46.7241 19.7413 46.0073 21.785 45.7997 23.999C45.5895 26.2031 45.9314 28.3439 46.7288 30.4156C47.4801 32.3938 48.5294 34.1864 49.9841 35.7223C50.251 36.0105 50.5205 36.3086 50.8404 36.5191C51.5352 36.9889 52.2687 37.406 52.9923 37.8258C53.0796 37.8765 53.1859 37.8797 53.3322 37.9146C52.6378 38.8624 51.7988 39.0343 50.8154 38.864C50.8472 38.9825 50.8558 39.0542 50.8744 39.1233C51.6679 42.0848 52.4247 45.0667 53.2379 48.0229C54.7029 53.3331 56.2073 58.6328 57.6821 63.9404C58.7107 67.6219 59.7393 71.3033 60.758 74.9874C60.8004 75.1453 60.8499 75.2907 60.9047 75.4559C61.121 75.398 61.3032 75.3703 61.465 75.3058C62.6811 74.8107 63.9149 74.3425 65.1124 73.7783C67.5343 72.6321 69.5695 70.9864 71.1404 68.788C71.9766 67.6223 72.539 66.3395 72.7707 64.9231C72.7972 64.7467 72.804 64.5756 72.8343 64.3347L72.8441 64.3321ZM66.0956 63.2519C65.1201 63.3864 64.1488 63.6149 63.1778 63.7269C61.8888 63.8713 60.6449 63.6332 59.4483 63.1392C58.8563 62.8958 58.448 62.4338 58.0738 61.9416C57.9902 61.8265 57.9604 61.6757 57.8833 61.506C57.9994 61.5066 58.0512 61.5033 58.1056 61.5099C58.9612 61.7144 59.832 61.661 60.6929 61.6101C61.1296 61.5883 61.5618 61.5889 61.9939 61.5895C63.2511 61.6018 64.4611 61.3199 65.6771 61.0999C67.0556 60.8575 68.3076 60.2998 69.4568 59.5158C69.5812 59.4296 69.7082 59.3532 69.8504 59.2939C70.3333 59.0905 70.8818 59.2503 71.1733 59.6695C71.47 60.1084 71.4189 60.7041 71.0105 61.0674C70.7624 61.282 70.4868 61.4723 70.2058 61.6428C68.9307 62.4288 67.5982 63.0398 66.0956 63.2519Z" fill="white"/>
<path d="M77.5363 38.3171C76.5378 37.8546 75.5261 37.6178 74.4515 37.7365C74.0129 37.7905 73.5513 37.7978 73.1191 38.0723C73.3534 38.4751 73.5772 38.8383 73.7813 39.2068C74.9149 41.1567 75.9215 43.1829 76.6436 45.3277C77.7079 48.5129 77.9486 51.7706 77.4444 55.0798C77.0663 57.5616 76.0863 59.8028 74.7531 61.9057C74.5754 62.1861 74.5175 62.4027 74.6271 62.733C74.9967 63.7978 75.0234 64.8805 74.791 65.9796C74.5307 67.1708 74.0787 68.2759 73.435 69.2948C73.3533 69.4225 73.2645 69.5627 73.1684 69.7154C73.32 69.77 73.4217 69.7957 73.5162 69.8338C74.328 70.0713 75.1643 70.1646 76.0044 70.1934C77.1686 70.2518 78.3033 70.043 79.3684 69.5354C80.6223 68.9455 81.539 68.0015 82.2243 66.8234C82.7874 65.8578 83.2311 64.8396 83.5802 63.7832C84.33 61.5086 84.671 59.1636 84.8782 56.791C85.0411 54.8429 84.9371 52.8816 84.7616 50.929C84.5472 48.5953 84.0844 46.3176 83.0783 44.1748C81.8744 41.609 80.1681 39.5269 77.5409 38.2947L77.5363 38.3171Z" fill="white"/>
<path d="M29.3803 25.5638C26.9668 23.9887 24.3661 22.8551 21.496 22.4074C20.5179 22.2569 19.5598 22.2597 18.576 22.481C18.1842 22.6706 17.7694 22.8135 17.4231 23.0544C17.057 23.3006 16.7318 23.6205 16.4217 23.9575C15.8499 24.5763 15.5572 25.3319 15.5052 26.1605C15.4101 27.6143 15.743 28.9746 16.572 30.1808C17.2792 31.2081 18.2213 31.9713 19.2961 32.5615C21.4012 33.7326 23.6292 34.4582 26.0414 34.5736C26.7137 34.6051 27.3996 34.5694 28.0371 34.314C29.1261 33.8952 30.1156 33.3021 30.9204 32.4516C31.6256 31.7019 32.0118 30.7837 31.9662 29.7485C31.9184 28.5869 31.539 27.5247 30.7141 26.6877C30.3066 26.2679 29.8624 25.8685 29.3777 25.554L29.3803 25.5638Z" fill="white"/>
<path d="M71.0003 61.0717C71.4087 60.7083 71.4598 60.1127 71.1631 59.6738C70.8841 59.2619 70.323 59.0948 69.8402 59.2982C69.7078 59.3549 69.5709 59.4338 69.4465 59.5201C68.3 60.314 67.0579 60.869 65.6668 61.1042C64.4482 61.3143 63.231 61.6087 61.9837 61.5938C61.5515 61.5932 61.1194 61.5926 60.6827 61.6144C59.8191 61.6554 58.951 61.7187 58.0954 61.5142C58.0383 61.4977 57.9793 61.5135 57.873 61.5103C57.9403 61.6827 57.98 61.8308 58.0635 61.9459C58.4378 62.4381 58.846 62.9001 59.4381 63.1435C60.6347 63.6375 61.8786 63.8756 63.1676 63.7312C64.1484 63.6165 65.1125 63.4005 66.0854 63.2562C67.588 63.0441 68.9205 62.4331 70.1956 61.647C70.4765 61.4765 70.7522 61.2863 71.0003 61.0717Z" fill="#002C4D"/>
<path d="M28.6802 3.40521C27.8937 3.61595 27.06 3.5325 26.3202 3.17C25.5081 2.77394 24.9006 2.07971 24.6062 1.21694C24.3118 0.354179 24.3721 -0.561295 24.765 -1.37547C25.158 -2.18965 25.8485 -2.79789 26.7076 -3.09156C27.5667 -3.38523 28.479 -3.32286 29.2911 -2.9268C30.9678 -2.09586 31.6609 -0.0597078 30.8462 1.61867C30.4533 2.43285 29.7628 3.04108 28.9037 3.33476C28.825 3.35583 28.7562 3.37427 28.6776 3.39534L28.6802 3.40521ZM27.5421 -0.881684C27.5421 -0.881684 27.4929 -0.868513 27.4732 -0.863244C27.2131 -0.772378 26.9991 -0.588065 26.875 -0.343218C26.751 -0.0983714 26.7339 0.19187 26.825 0.453134C26.9161 0.714398 27.1002 0.929579 27.3444 1.05458C27.5886 1.17959 27.8654 1.19007 28.138 1.10644C28.3981 1.01558 28.6122 0.831262 28.7362 0.586415C28.9889 0.0743441 28.7705 -0.544266 28.2597 -0.798878C28.0306 -0.906774 27.7807 -0.93503 27.5349 -0.869175L27.5421 -0.881684Z" fill="#66FF44"/>
<path d="M36.1974 5.7827C37.1639 5.52374 37.7365 4.52711 37.4765 3.55667C37.2165 2.58623 36.2222 2.00946 35.2558 2.26842C34.2893 2.52738 33.7167 3.524 33.9767 4.49444C34.2367 5.46488 35.231 6.04166 36.1974 5.7827Z" fill="#66FF44"/>
</g>
<defs>
<clipPath id="clip0_799_1830">
<rect width="67.3154" height="67.3154" fill="white"/>
</clipPath>
</defs>
</svg>
