<svg width="118" height="38" viewBox="0 0 118 38" fill="none" xmlns="http://www.w3.org/2000/svg">
<g clip-path="url(#clip0_2765_3812)">
<path d="M117.206 37.3317H113.1L110.114 21.2812L113.1 6.72374H117.206L114.22 21.2812L117.206 37.3317Z" fill="white"/>
<path d="M104.142 37.3317H108.248L111.234 21.2812L108.248 6.72374H104.142L107.128 21.2812L104.142 37.3317Z" fill="white"/>
<path d="M54.497 37.3317L50.0178 37.3317L47.7782 17.3353C47.5041 15.2026 47.2494 11.9497 46.9753 9.17678C47.0298 11.8966 47.0316 14.9356 47.0316 17.3353V37.3317H42.5524V0.00492859H50.0178L51.7918 17.7085C52.0106 19.6812 52.1484 21.8678 52.2574 23.9474C52.4217 21.8678 52.5052 19.6812 52.724 17.7085L54.497 0.00492859H61.9623V37.3317H57.4831V17.3353C57.4831 14.9356 57.4838 11.9497 57.5391 9.28375C57.2651 12.0035 57.0098 15.2557 56.7366 17.3353L54.497 37.3317Z" fill="white"/>
<path d="M98.1693 0.00492859H102.649V4.48414H98.1693V0.00492859Z" fill="white"/>
<path d="M98.1693 37.3317H102.649V6.72374H98.1693V37.3317Z" fill="white"/>
<path d="M91.4505 37.3308H86.9713V0.00492859H91.4505V37.3308Z" fill="white"/>
<path d="M86.9713 16.0554H95.5564V20.5346H86.9713V16.0554Z" fill="white"/>
<path d="M86.9713 0.00492859H96.6762V4.48414H86.9713V0.00492859Z" fill="white"/>
<path d="M79.1326 1.498H83.6118V32.1587C83.6118 34.0784 83.7722 35.8379 84.3585 37.3313H79.6124C79.1323 36.425 79.1326 34.6115 79.1326 32.7458V1.498Z" fill="white"/>
<path d="M77.6396 6.72374H85.4782V10.8297H77.6396V6.72374Z" fill="white"/>
<path d="M71.6673 26.5032H76.1465V32.3318C76.1465 36.3874 74.5461 37.5606 70.8139 37.5569H68.8412C65.1621 37.5606 63.8287 36.3837 63.8287 32.3318V11.9488C63.8287 7.89693 65.1621 6.72374 68.8412 6.72374H70.8139C74.5461 6.72374 76.1465 7.89693 76.1465 11.9488V23.4645H68.3079V31.7987C68.3079 33.2381 68.5212 33.7181 69.6945 33.7181H70.2276C71.4009 33.7181 71.6673 33.2381 71.6673 31.7987V26.5032ZM68.3079 19.8389H71.6673V12.4819C71.6673 11.0426 71.4001 10.5625 70.2268 10.5625H69.6937C68.5204 10.5625 68.3079 11.0426 68.3079 12.4819V19.8389Z" fill="white"/>
</g>
<rect width="37.3268" height="37.3268" transform="translate(-6.10352e-05 0.00492859)" fill="#0076D6"/>
<g clip-path="url(#clip1_2765_3812)">
<path d="M34.7139 16.2518H23.8164L31.5225 8.54572L28.502 5.52731L18.6634 15.3681L8.82258 5.52731L5.80417 8.54572L13.5103 16.2518H2.61285V20.5212H13.5103L5.80417 28.2251L8.82258 31.2457L16.5287 23.5396V34.437H20.798V23.5396L28.502 31.2457L31.5225 28.2251L23.8164 20.5212H34.7139V16.2518Z" fill="white"/>
<path d="M18.6634 11.6671C19.8417 11.6671 20.798 10.7023 20.798 9.51351V4.77136C20.798 3.58259 19.8417 2.6178 18.6634 2.6178C17.485 2.6178 16.5287 3.58259 16.5287 4.77136V9.51351C16.5287 10.7023 17.485 11.6671 18.6634 11.6671Z" fill="white"/>
</g>
<defs>
<clipPath id="clip0_2765_3812">
<rect width="74.6535" height="37.3268" fill="white" transform="translate(42.5524 0.00492859)"/>
</clipPath>
<clipPath id="clip1_2765_3812">
<rect x="2.61282" y="2.6178" width="32.101" height="32.101" rx="8.44532" fill="white"/>
</clipPath>
</defs>
</svg>
